<svg width="97.250000" height="85.767334" viewBox="0 0 97.25 85.7673" fill="none" xmlns="http://www.w3.org/2000/svg" xmlns:xlink="http://www.w3.org/1999/xlink">
	<desc>
			Created with Pixso.
	</desc>
	<defs/>
	<path id="Vector 67" d="M0 48.35C25.19 39.59 70.09 40.44 97.25 48.35C90.48 64.12 80.42 85.76 48.85 85.76C37.53 85.84 9.32 80.38 0 48.35Z" fill="#37743A" fill-opacity="1.000000" fill-rule="evenodd"/>
	<path id="Vector 66" d="M8.76 6.38C10.73 6.38 21.86 11.7 35.76 18.14C38.94 12.39 45.85 0.71 48.1 0.02C50.9 -0.84 59.63 17.64 59.87 18.14C60.32 19.07 73.72 11.99 88.5 6.38C90.93 20.28 82.63 54.6 48.1 65.87C34.46 61.18 4.5 39.74 8.76 6.38Z" fill="#FCF546" fill-opacity="1.000000" fill-rule="evenodd"/>
</svg>
