<svg width="22" height="17" viewBox="0 0 22 17" fill="none" xmlns="http://www.w3.org/2000/svg">
<path d="M10.0455 10.2502H10.1955V10.1002V3.70024C10.1955 3.45208 10.2838 3.21698 10.4368 3.04603C10.5893 2.87562 10.7923 2.78358 11 2.78358H18.6364C19.3503 2.78358 20.039 3.10038 20.5495 3.67086C21.0605 4.2419 21.35 5.01962 21.35 5.83358V15.4336C21.35 15.6817 21.2616 15.9168 21.1086 16.0878C20.9561 16.2582 20.7531 16.3502 20.5455 16.3502C20.3378 16.3502 20.1348 16.2582 19.9823 16.0878C19.8293 15.9168 19.7409 15.6817 19.7409 15.4336V12.2336V12.0836H19.5909H2.40909H2.25909V12.2336V15.4336C2.25909 15.6817 2.17072 15.9168 2.01773 16.0878C1.86524 16.2582 1.66221 16.3502 1.45455 16.3502C1.24688 16.3502 1.04386 16.2582 0.891358 16.0878C0.738371 15.9168 0.65 15.6817 0.65 15.4336V1.56691C0.65 1.31875 0.738371 1.08365 0.891358 0.912692C1.04386 0.742282 1.24688 0.650244 1.45455 0.650244C1.66221 0.650244 1.86524 0.742282 2.01773 0.912692C2.17072 1.08365 2.25909 1.31875 2.25909 1.56691V10.1002V10.2502H2.40909H10.0455ZM19.5909 10.2502H19.7409V10.1002V5.83358C19.7409 5.51594 19.6281 5.20842 19.4231 4.9793C19.2176 4.74963 18.935 4.61691 18.6364 4.61691H11.9545H11.8045V4.76691V10.1002V10.2502H11.9545H19.5909ZM7.72848 8.37409C7.28243 8.70714 6.76002 8.88358 6.22727 8.88358C5.51329 8.88358 4.82468 8.56678 4.31415 7.99629C3.80314 7.42526 3.51364 6.64753 3.51364 5.83358C3.51364 5.22687 3.6747 4.63493 3.97499 4.13273C4.27521 3.63064 4.70028 3.24201 5.19441 3.01329C5.68824 2.78471 6.23048 2.72526 6.75339 2.84149C7.27652 2.95777 7.75959 3.24533 8.14039 3.67086C8.52135 4.09657 8.78234 4.64084 8.88821 5.23558C8.99407 5.83032 8.93963 6.44664 8.73228 7.00603C8.52495 7.56537 8.17479 8.04085 7.72848 8.37409ZM6.84733 4.82648C6.66549 4.69071 6.44969 4.61691 6.22727 4.61691C5.92861 4.61691 5.64606 4.74964 5.44053 4.9793C5.23549 5.20842 5.12273 5.51594 5.12273 5.83358C5.12273 6.07074 5.1856 6.30371 5.30486 6.50317C5.42418 6.70272 5.59543 6.86096 5.79898 6.95517C6.00283 7.04953 6.2283 7.07457 6.44604 7.02618C6.66357 6.97782 6.86084 6.85902 7.01402 6.68785C7.16704 6.51685 7.26969 6.30088 7.31116 6.06796C7.35261 5.83505 7.33145 5.59349 7.24981 5.37325C7.16815 5.15296 7.02892 4.96207 6.84733 4.82648Z" fill="#A8A8A8" stroke="white" stroke-width="0.3"/>
</svg>
