<svg width="22" height="22" viewBox="0 0 22 22" fill="none" xmlns="http://www.w3.org/2000/svg">
<path d="M14.7758 11.5875L14.5007 11.8027L14.8257 11.931C16.572 12.6203 18.0967 13.7692 19.2364 15.2544C20.376 16.7395 21.0877 18.505 21.2952 20.3615C21.319 20.5838 21.2536 20.8067 21.1129 20.9815C20.9744 21.1538 20.7737 21.2658 20.5534 21.2938L20.4494 21.2938L20.4481 21.2939C20.2364 21.2951 20.0319 21.2183 19.874 21.0786C19.7161 20.9389 19.6161 20.7462 19.5929 20.5378L19.5929 20.5374C19.3556 18.4369 18.3486 16.4972 16.7644 15.0887C15.1802 13.6803 13.13 12.9019 11.0055 12.9019C8.88094 12.9019 6.83073 13.6803 5.24655 15.0887C3.66235 16.4972 2.65525 18.4369 2.418 20.5374L2.41795 20.5379C2.39303 20.7632 2.27913 20.9696 2.10091 21.1117C1.92265 21.2539 1.6947 21.3199 1.46723 21.295C1.23977 21.2702 1.03184 21.1565 0.889047 20.9793L0.733347 21.1049L0.889047 20.9793C0.818349 20.8916 0.765757 20.791 0.734222 20.6832C0.702687 20.5754 0.692814 20.4626 0.705152 20.351C0.911716 18.4997 1.61956 16.7388 2.75334 15.2559C3.88717 13.773 5.40449 12.6237 7.14364 11.9308L7.46697 11.8019L7.19286 11.5875C6.19107 10.8036 5.46003 9.72886 5.10122 8.51284C4.74242 7.29683 4.77364 5.99986 5.19056 4.80231C5.60748 3.60474 6.38942 2.56599 7.42781 1.8307C8.46622 1.0954 9.70938 0.700183 10.9843 0.700183C12.2593 0.700183 13.5025 1.0954 14.5409 1.8307C15.5793 2.56599 16.3612 3.60474 16.7781 4.80231C17.1951 5.99986 17.2263 7.29683 16.8675 8.51284C16.5087 9.72886 15.7776 10.8036 14.7758 11.5875ZM8.52874 10.4591C9.2557 10.9421 10.1103 11.1999 10.9843 11.1999C12.1564 11.1999 13.2808 10.7369 14.1099 9.91227C14.9391 9.08765 15.4051 7.96899 15.4051 6.80232C15.4051 5.93232 15.1457 5.08194 14.6598 4.35873C14.1739 3.63554 13.4834 3.07205 12.6757 2.73934C11.8681 2.40663 10.9794 2.3196 10.1221 2.4892C9.26478 2.6588 8.47713 3.07744 7.8588 3.69237C7.24047 4.30731 6.81925 5.09093 6.64859 5.94419C6.47793 6.79745 6.56553 7.68187 6.90027 8.48556C7.235 9.28924 7.80177 9.97598 8.52874 10.4591Z" fill="#A8A8A8" stroke="white" stroke-width="0.4"/>
</svg>
