<svg width="23" height="16" viewBox="0 0 23 16" fill="none" xmlns="http://www.w3.org/2000/svg">
<path d="M1.23333 0.6H21.7667C21.9339 0.6 22.0948 0.667926 22.2137 0.78959C22.3327 0.911331 22.4 1.07692 22.4 1.25004V12.5006C22.4 12.6737 22.3327 12.8393 22.2137 12.961C22.0948 13.0827 21.9339 13.1506 21.7667 13.1506H20.1959H20.1177L20.0988 13.2264C19.944 13.8486 19.591 14.3998 19.0962 14.7932C18.6014 15.1866 17.9928 15.4 17.3667 15.4C16.7405 15.4 16.132 15.1866 15.6372 14.7932C15.1423 14.3998 14.7893 13.8486 14.6345 13.2264L14.6156 13.1506H14.5375H8.46253H8.38437L8.36549 13.2264C8.21068 13.8486 7.85771 14.3998 7.36284 14.7932C6.86802 15.1866 6.25946 15.4 5.63333 15.4C5.0072 15.4 4.39865 15.1866 3.90383 14.7932C3.40896 14.3998 3.05599 13.8486 2.90117 13.2264L2.8823 13.1506H2.80413H1.23333C1.0661 13.1506 0.905246 13.0827 0.786291 12.961C0.66726 12.8393 0.6 12.6737 0.6 12.5006V1.25004C0.6 1.07692 0.66726 0.911331 0.786291 0.78959C0.905246 0.667926 1.0661 0.6 1.23333 0.6ZM21.0333 6.60028H21.1333V6.50028V2.00007V1.90007H21.0333H16.6333H16.5333V2.00007V6.50028V6.60028H16.6333H21.0333ZM6.26667 6.50028V6.60028H6.36667H10.0333H10.1333V6.50028V2.00007V1.90007H10.0333H6.36667H6.26667V2.00007V6.50028ZM11.5 1.90007H11.4V2.00007V6.50028V6.60028H11.5H15.1667H15.2667V6.50028V2.00007V1.90007H15.1667H11.5ZM5 2.00007V1.90007H4.9H1.96667H1.86667V2.00007V6.50028V6.60028H1.96667H4.9H5V6.50028V2.00007ZM1.96667 7.90035H1.86667V8.00035V11.7505V11.8505H1.96667H2.80413H2.8823L2.90117 11.7747C3.05599 11.1525 3.40896 10.6013 3.90383 10.2079C4.39865 9.81448 5.0072 9.60112 5.63333 9.60112C6.25946 9.60112 6.86802 9.81448 7.36284 10.2079C7.85771 10.6013 8.21068 11.1525 8.36549 11.7747L8.38437 11.8505H8.46253H14.5375H14.6153L14.6344 11.7751C14.7504 11.3173 14.9744 10.8958 15.2866 10.5475L15.3267 10.5027L15.306 10.4462C15.2827 10.3829 15.2694 10.3161 15.2667 10.2485V8.00035V7.90035H15.1667H1.96667ZM20.0989 11.775L20.118 11.8505H20.1959H21.0333H21.1333V11.7505V10.2505V10.1505H21.0333H20.3C20.1328 10.1505 19.9719 10.0825 19.853 9.96087C19.7339 9.83912 19.6667 9.67354 19.6667 9.50042C19.6667 9.3273 19.7339 9.16172 19.853 9.03998C19.9719 8.91831 20.1328 8.85039 20.3 8.85039H21.0333H21.1333V8.75039V8.00035V7.90035H21.0333H16.6333H16.5333V8.00035V9.60693V9.73911L16.6605 9.70316C16.8908 9.63807 17.1283 9.60355 17.3671 9.60042C17.9926 9.60301 18.5998 9.81736 19.0941 10.2104C19.5886 10.6037 19.9421 11.1538 20.0989 11.775ZM4.76207 13.8304C5.01976 14.0065 5.32297 14.1006 5.63333 14.1006C6.04958 14.1006 6.4483 13.9315 6.74193 13.6312C7.03548 13.3309 7.2 12.9242 7.2 12.5006C7.2 12.1846 7.1084 11.8755 6.93654 11.6125C6.76466 11.3494 6.52013 11.144 6.23361 11.0226C5.94706 10.9012 5.63162 10.8694 5.32727 10.9313C5.02293 10.9932 4.74369 11.146 4.52474 11.3699C4.30581 11.5939 4.15697 11.8789 4.09669 12.1888C4.03641 12.4988 4.06733 12.8201 4.18562 13.1122C4.30393 13.4043 4.50441 13.6543 4.76207 13.8304ZM16.4954 13.8304C16.7531 14.0065 17.0563 14.1006 17.3667 14.1006C17.7829 14.1006 18.1816 13.9315 18.4753 13.6312C18.7688 13.3309 18.9333 12.9242 18.9333 12.5006C18.9333 12.1846 18.8417 11.8755 18.6699 11.6125C18.498 11.3494 18.2535 11.144 17.9669 11.0226C17.6804 10.9012 17.365 10.8694 17.0606 10.9313C16.7563 10.9932 16.477 11.146 16.2581 11.3699C16.0391 11.5939 15.8903 11.8789 15.83 12.1888C15.7697 12.4988 15.8007 12.8201 15.919 13.1122C16.0373 13.4043 16.2377 13.6543 16.4954 13.8304Z" fill="#A8A8A8" stroke="white" stroke-width="0.2"/>
</svg>
