<svg width="22" height="18" viewBox="0 0 22 18" fill="none" xmlns="http://www.w3.org/2000/svg">
<path d="M20.5 4.5C19.5681 4.5 18.7762 5.00943 18.346 5.75021C18.2295 5.71846 18.1178 5.69094 18.0063 5.6642L17.999 5.66244L17.9916 5.6609C17.8721 5.63599 17.7377 5.60866 17.5955 5.58663C17.4807 5.56681 17.3636 5.55169 17.2506 5.54089C17.2353 5.53788 17.2211 5.53576 17.2083 5.53426C17.186 5.53164 17.1675 5.53083 17.1556 5.53051L17.1411 5.53028L17.1348 5.53027H17.1151C16.9096 5.50861 16.7006 5.5 16.5 5.5C12.6339 5.5 9.5 8.63386 9.5 12.5C9.5 12.6226 9.50529 12.7478 9.51028 12.8577L9.51026 12.8577L9.51054 12.8627C9.51303 12.9075 9.51574 12.9531 9.5192 13H2.25C1.56114 13 1 12.4389 1 11.75V9.73535C1 9.66903 1.02936 9.59766 1.08729 9.5435C1.13486 9.50339 1.20202 9.48015 1.27562 9.48579C1.36445 9.50041 1.44614 9.50016 1.48953 9.50002C1.49332 9.50001 1.49682 9.5 1.5 9.5C2.88114 9.5 4 8.38114 4 7C4 5.61886 2.88114 4.5 1.5 4.5C1.41745 4.5 1.34492 4.50725 1.29502 4.51224L1.29497 4.51225L1.29497 4.51218L1.28698 4.51311C1.20751 4.52235 1.13465 4.49778 1.08453 4.45414C1.03019 4.40618 1 4.33885 1 4.26465V2.25C1 1.56114 1.56114 1 2.25 1H19.75C20.4389 1 21 1.56114 21 2.25V4.26465C21 4.33378 20.9686 4.40273 20.9159 4.44891L20.9158 4.44885L20.9094 4.4547C20.8616 4.49801 20.7921 4.52231 20.713 4.51311L20.713 4.51305L20.705 4.51225L20.705 4.51224C20.6551 4.50725 20.5826 4.5 20.5 4.5ZM11.5 12.5C11.5 9.73864 13.7386 7.5 16.5 7.5C19.2614 7.5 21.5 9.73864 21.5 12.5C21.5 15.2614 19.2614 17.5 16.5 17.5C13.7386 17.5 11.5 15.2614 11.5 12.5Z" stroke="#8E8E8E"/>
</svg>
