<svg width="22" height="22" viewBox="0 0 22 22" fill="none" xmlns="http://www.w3.org/2000/svg">
<path d="M20.8791 7.46168C20.8791 7.46168 20.8791 7.46168 20.8791 7.40902C20.1378 5.38315 18.7927 3.63406 17.0258 2.39836C15.2589 1.16267 13.1555 0.5 11 0.5C8.84454 0.5 6.74108 1.16267 4.97418 2.39836C3.20728 3.63406 1.8622 5.38315 1.1209 7.40902C1.1209 7.40902 1.1209 7.40902 1.1209 7.46168C0.293035 9.74779 0.293035 12.2522 1.1209 14.5383C1.1209 14.5383 1.1209 14.5383 1.1209 14.591C1.8622 16.6168 3.20728 18.3659 4.97418 19.6016C6.74108 20.8373 8.84454 21.5 11 21.5C13.1555 21.5 15.2589 20.8373 17.0258 19.6016C18.7927 18.3659 20.1378 16.6168 20.8791 14.591C20.8791 14.591 20.8791 14.591 20.8791 14.5383C21.707 12.2522 21.707 9.74779 20.8791 7.46168ZM2.8358 13.1061C2.47096 11.7258 2.47096 10.2742 2.8358 8.89386H4.79268C4.62438 10.2929 4.62438 11.7071 4.79268 13.1061H2.8358ZM3.69851 15.2123H5.17143C5.41838 16.1515 6.91812 18.1408 7.3703 19C6.33851 18.2965 4.32923 16.2907 3.69851 15.2123ZM5.17143 6.78771H3.69851C4.32016 5.71262 5.97968 4.2071 7 3.5C6.55871 4.36062 5.4083 5.84987 5.17143 6.78771ZM9.92687 19.1087C8.63466 18.1595 7.72711 16.7763 7.3703 15.2123H9.92687V19.1087ZM9.92687 13.1061H6.9179C6.72157 11.7089 6.72157 10.2911 6.9179 8.89386H9.92687V13.1061ZM9.92687 6.78771H7.3703C7.72711 5.22366 8.63466 3.8405 9.92687 2.89135V6.78771ZM18.2594 6.78771H16.7865C16.5395 5.84854 15.4922 4.35924 15.04 3.5C16.0718 4.20353 17.6287 5.7093 18.2594 6.78771ZM12.031 2.89135C13.3233 3.8405 14.2308 5.22366 14.5876 6.78771H12.031V2.89135ZM12.031 19.1087V15.2123H14.5876C14.2308 16.7763 13.3233 18.1595 12.031 19.1087ZM15.04 13.1061H12.031V8.89386H15.04C15.2363 10.2911 15.2363 11.7089 15.04 13.1061ZM14.5 19C14.9522 18.1408 16.5711 16.1515 16.818 15.2123H18.291C17.6602 16.2907 15.5318 18.2965 14.5 19ZM19.1221 13.1061H17.1652C17.2508 12.4074 17.293 11.704 17.2915 11C17.2926 10.296 17.2505 9.59264 17.1652 8.89386H19.1221C19.487 10.2742 19.487 11.7258 19.1221 13.1061Z" fill="#A8A8A8" stroke="white" stroke-linejoin="round"/>
</svg>
