<svg width="22" height="14" viewBox="0 0 22 14" fill="none" xmlns="http://www.w3.org/2000/svg">
<path d="M18.421 7.79772L20.0987 7.79409C20.2254 7.79453 20.3509 7.7699 20.468 7.72162C20.5852 7.67333 20.6916 7.60235 20.7812 7.51277C20.8708 7.42318 20.9417 7.31675 20.99 7.19961C21.0383 7.08248 21.0629 6.95694 21.0625 6.83025V1.47129C21.0625 1.34471 21.0376 1.21936 20.9892 1.1024C20.9408 0.985446 20.8698 0.879179 20.7803 0.78967C20.6908 0.700162 20.5845 0.629168 20.4675 0.580743C20.3506 0.532317 20.2252 0.507411 20.0987 0.507446H1.90134C1.64595 0.508193 1.40122 0.609981 1.22063 0.790575C1.04003 0.971169 0.938247 1.21589 0.9375 1.47129V6.83025C0.937464 6.95683 0.96237 7.08218 1.0108 7.19914C1.05922 7.31609 1.13022 7.42236 1.21972 7.51187C1.30923 7.60137 1.4155 7.67237 1.53245 7.7208C1.64941 7.76922 1.77476 7.79413 1.90134 7.79409L3.50831 7.79772L4.1444 6.80825H17.7143L18.421 7.79772Z" stroke="#8E8E8E" stroke-linecap="round" stroke-linejoin="round"/>
<path d="M4.14453 2.3562H17.7144" stroke="#8E8E8E" stroke-linecap="round" stroke-linejoin="round"/>
<path d="M10.4844 13.4925L10.7108 13.1067C11.0008 12.5942 11.0993 11.9954 10.9887 11.4171C10.9735 11.3422 10.9551 11.2685 10.9335 11.1961C10.9119 11.1238 10.8936 11.0502 10.8784 10.9751C10.7678 10.3968 10.8662 9.79797 11.1563 9.28553L11.3827 8.89966" stroke="#8E8E8E" stroke-linecap="round" stroke-linejoin="round"/>
<path d="M13.2695 12.9561L13.4462 12.655C13.6346 12.3311 13.7191 11.9571 13.6881 11.5836C13.6761 11.4523 13.6512 11.3225 13.6138 11.1961C13.5763 11.0697 13.5514 10.9399 13.5394 10.8086C13.5084 10.4352 13.5929 10.0612 13.7813 9.73727L13.958 9.43616" stroke="#8E8E8E" stroke-linecap="round" stroke-linejoin="round"/>
<path d="M7.90234 12.9561L8.07903 12.655C8.26746 12.3311 8.3519 11.9571 8.32094 11.5836C8.3089 11.4523 8.284 11.3225 8.24657 11.1961C8.20915 11.0697 8.18424 10.9399 8.17221 10.8086C8.14125 10.4352 8.22569 10.0612 8.41411 9.73727L8.5908 9.43616" stroke="#8E8E8E" stroke-linecap="round" stroke-linejoin="round"/>
</svg>
