<svg width="215.000000" height="215.000000" viewBox="0 0 215 215" fill="none" xmlns="http://www.w3.org/2000/svg" xmlns:xlink="http://www.w3.org/1999/xlink">
	<desc>
			Created with Pixso.
	</desc>
	<defs/>
	<path id="Vector" d="M92.61 22L93.55 29.61L94.31 28.55L97.14 25.01L98.31 24.86L95.19 28.84L99.66 33.21L98.54 33.35L94.62 29.55L93.69 30.7L94.08 33.9L93.16 34.02L91.68 22.11L92.61 22ZM84.65 27.65L84.86 28.48C84.76 28.5 84.66 28.51 84.56 28.53C84.46 28.55 84.36 28.57 84.25 28.61C83.86 28.72 83.54 28.89 83.28 29.12C83.04 29.35 82.85 29.62 82.72 29.93Q82.53 30.39 82.52 30.95C82.52 30.97 82.52 31 82.52 31.03C82.52 31.04 82.52 31.05 82.52 31.06L84.16 36.66L83.26 36.92L80.9 28.81L81.77 28.56L82.16 29.82C82.18 29.69 82.22 29.56 82.25 29.44C82.38 29.03 82.59 28.68 82.88 28.38C83.18 28.09 83.56 27.87 84.03 27.73C84.14 27.7 84.26 27.68 84.37 27.67C84.49 27.65 84.58 27.64 84.65 27.65ZM134.94 31L132.65 36.32L131.79 35.96L135.14 28.19L135.96 28.55L135.42 29.87C135.6 29.75 135.79 29.64 135.98 29.54C136.39 29.36 136.81 29.25 137.25 29.24C137.69 29.23 138.13 29.32 138.58 29.51C138.96 29.67 139.29 29.88 139.55 30.11C139.81 30.35 140 30.63 140.11 30.95C140.2 31.19 140.24 31.44 140.24 31.72C140.24 31.82 140.23 31.93 140.22 32.05C140.18 32.46 140.05 32.92 139.83 33.43L137.64 38.48L136.79 38.11L138.97 33.06Q139.29 32.31 139.29 31.79C139.29 31.76 139.29 31.73 139.29 31.7C139.27 31.33 139.16 31.03 138.94 30.78C138.72 30.53 138.43 30.33 138.05 30.17C137.64 29.99 137.24 29.92 136.85 29.97C136.47 30.02 136.11 30.14 135.78 30.33C135.47 30.52 135.19 30.74 134.94 31ZM71.91 36.62L71.49 35.76C71.31 35.4 71.09 35.13 70.81 34.94C70.53 34.75 70.22 34.65 69.86 34.65C69.5 34.65 69.1 34.76 68.68 34.97C68.29 35.16 67.97 35.4 67.73 35.69C67.49 35.97 67.34 36.27 67.27 36.6C67.25 36.69 67.25 36.79 67.25 36.88C67.25 37.09 67.29 37.29 67.39 37.49L66.54 37.89Q66.48 37.78 66.44 37.66Q66.34 37.36 66.34 37.03Q66.34 36.99 66.35 36.96C66.36 36.62 66.44 36.29 66.6 35.95C66.75 35.62 66.98 35.3 67.27 35C67.57 34.7 67.94 34.45 68.37 34.24C68.91 33.97 69.43 33.83 69.94 33.82C70.44 33.8 70.9 33.91 71.31 34.16C71.72 34.41 72.06 34.82 72.33 35.37L74.12 39.05Q74.31 39.44 74.57 39.83C74.75 40.09 74.92 40.3 75.08 40.44L75.12 40.53L74.23 40.96C74.09 40.82 73.95 40.63 73.79 40.39C73.7 40.25 73.62 40.12 73.55 39.98C73.5 40.22 73.41 40.45 73.31 40.7C73.15 41.04 72.93 41.36 72.64 41.66C72.36 41.96 72 42.22 71.56 42.43C71.06 42.68 70.58 42.79 70.12 42.78C69.67 42.77 69.26 42.66 68.89 42.44C68.53 42.21 68.25 41.88 68.05 41.47C67.89 41.13 67.8 40.78 67.8 40.44C67.8 40.41 67.8 40.38 67.8 40.35C67.82 39.97 67.92 39.61 68.12 39.26C68.33 38.9 68.61 38.56 68.99 38.25C69.36 37.92 69.82 37.63 70.35 37.37L71.91 36.62ZM152.83 41.02L153.38 40.24C153.61 39.91 153.74 39.58 153.77 39.24C153.77 39.19 153.78 39.14 153.78 39.09C153.78 38.81 153.7 38.54 153.55 38.27C153.38 37.96 153.1 37.66 152.71 37.39C152.35 37.14 151.99 36.98 151.61 36.91Q151.08 36.81 150.62 36.95Q150.61 36.95 150.6 36.96C150.3 37.05 150.06 37.23 149.88 37.49L149.11 36.94C149.3 36.68 149.54 36.48 149.83 36.32C150.13 36.17 150.47 36.08 150.84 36.05C151.2 36.02 151.59 36.07 151.99 36.18C152.4 36.3 152.8 36.49 153.19 36.77C153.69 37.11 154.07 37.5 154.32 37.93C154.57 38.33 154.69 38.76 154.69 39.2C154.69 39.24 154.69 39.27 154.69 39.3C154.67 39.79 154.48 40.28 154.13 40.78L151.79 44.13C151.62 44.37 151.47 44.63 151.32 44.91C151.18 45.19 151.09 45.44 151.04 45.65L150.98 45.73L150.17 45.16C150.23 44.97 150.32 44.75 150.45 44.5C150.53 44.36 150.61 44.22 150.69 44.09C150.47 44.16 150.22 44.2 149.95 44.23C149.58 44.25 149.19 44.22 148.79 44.12C148.39 44.01 147.99 43.82 147.59 43.54C147.13 43.23 146.8 42.86 146.58 42.46C146.38 42.09 146.29 41.7 146.29 41.31C146.29 41.28 146.29 41.25 146.29 41.21C146.31 40.79 146.46 40.38 146.72 40.01Q147.06 39.53 147.52 39.28Q147.55 39.26 147.58 39.25C147.92 39.07 148.29 38.99 148.69 38.99C149.1 39 149.54 39.08 149.99 39.26C150.46 39.43 150.93 39.69 151.42 40.03L152.83 41.02ZM73.04 38.95L72.22 37.27L70.78 37.97C70.35 38.18 69.98 38.4 69.68 38.65C69.38 38.89 69.15 39.14 68.98 39.4C68.82 39.66 68.73 39.93 68.7 40.19Q68.69 40.25 68.69 40.31C68.69 40.54 68.75 40.76 68.86 40.98C68.99 41.26 69.18 41.47 69.42 41.63C69.67 41.79 69.96 41.87 70.28 41.88C70.6 41.89 70.93 41.81 71.29 41.64C71.75 41.41 72.12 41.12 72.4 40.78C72.67 40.43 72.86 40.06 72.96 39.66C73.01 39.45 73.04 39.23 73.04 39.03Q73.04 38.99 73.04 38.95ZM151.35 43.14L152.42 41.61L151.11 40.69C150.72 40.41 150.34 40.2 149.98 40.06C149.62 39.91 149.29 39.83 148.98 39.82C148.67 39.8 148.4 39.85 148.15 39.95Q148.09 39.98 148.02 40.02Q147.74 40.18 147.54 40.48C147.36 40.72 147.27 40.99 147.25 41.29C147.25 41.31 147.25 41.34 147.25 41.37C147.25 41.64 147.31 41.9 147.44 42.15C147.59 42.44 147.83 42.69 148.15 42.92C148.58 43.21 149 43.4 149.44 43.47C149.88 43.54 150.3 43.52 150.69 43.42C150.93 43.35 151.15 43.26 151.35 43.14ZM59.66 45.23L59.76 45.36C60.14 45.85 60.44 46.36 60.65 46.86C60.85 47.37 60.96 47.86 60.98 48.33C60.98 48.37 60.98 48.41 60.98 48.45C60.98 48.87 60.9 49.27 60.72 49.65Q60.44 50.26 59.83 50.73C59.43 51.04 59.03 51.25 58.62 51.37C58.21 51.49 57.81 51.52 57.41 51.47C57.27 51.45 57.13 51.42 56.99 51.38L59.63 54.8L58.89 55.37L51.73 46.11L52.42 45.58L53.19 46.49C53.18 46.41 53.18 46.33 53.18 46.25C53.18 46.15 53.18 46.06 53.19 45.97C53.23 45.56 53.35 45.17 53.56 44.81C53.76 44.44 54.06 44.11 54.46 43.81C54.86 43.49 55.29 43.29 55.73 43.21C56.17 43.12 56.62 43.14 57.07 43.27C57.52 43.39 57.96 43.62 58.4 43.96C58.84 44.28 59.26 44.71 59.66 45.23ZM59.02 45.93L58.92 45.8C58.61 45.41 58.29 45.08 57.95 44.81C57.62 44.53 57.27 44.34 56.91 44.22C56.56 44.09 56.2 44.05 55.84 44.11C55.49 44.16 55.14 44.32 54.8 44.58C54.44 44.86 54.18 45.15 54.03 45.46C53.87 45.77 53.78 46.08 53.77 46.4C53.76 46.46 53.76 46.52 53.76 46.58C53.76 46.84 53.79 47.09 53.86 47.33L56.34 50.55C56.47 50.61 56.6 50.66 56.74 50.71C57.12 50.84 57.51 50.88 57.92 50.81Q58.54 50.71 59.17 50.22C59.51 49.96 59.75 49.66 59.89 49.33C60 49.07 60.06 48.78 60.06 48.49Q60.06 48.38 60.05 48.27C60.02 47.89 59.91 47.51 59.73 47.11C59.56 46.72 59.32 46.32 59.02 45.93ZM166.46 44.34L167.12 45L165.59 46.54L166.83 47.77L166.29 48.32L165.05 47.08L161.08 51.08C160.8 51.36 160.63 51.6 160.57 51.82C160.54 51.92 160.52 52.02 160.52 52.11C160.52 52.21 160.54 52.3 160.58 52.39C160.64 52.55 160.75 52.7 160.89 52.84C160.99 52.94 161.09 53.03 161.19 53.11C161.3 53.19 161.39 53.25 161.49 53.31L160.96 53.9C160.85 53.85 160.72 53.76 160.58 53.65C160.43 53.54 160.29 53.42 160.17 53.29C159.91 53.04 159.73 52.77 159.63 52.48Q159.6 52.41 159.59 52.34Q159.56 52.2 159.56 52.06C159.56 51.89 159.59 51.72 159.65 51.53C159.77 51.19 160.03 50.82 160.42 50.42L164.39 46.43L163.28 45.33L163.82 44.79L164.93 45.89L166.46 44.34ZM174.3 52.13C174.44 52.02 174.59 51.97 174.75 51.98C174.92 51.99 175.06 52.08 175.19 52.23C175.29 52.36 175.34 52.49 175.34 52.63C175.34 52.66 175.34 52.68 175.34 52.71C175.32 52.88 175.24 53.02 175.1 53.13C174.97 53.24 174.81 53.29 174.64 53.27Q174.59 53.27 174.53 53.25Q174.35 53.2 174.21 53.02C174.1 52.89 174.05 52.75 174.05 52.61C174.05 52.59 174.05 52.56 174.05 52.54C174.08 52.38 174.17 52.24 174.3 52.13ZM173.08 54.52L166.48 59.81L165.9 59.08L172.49 53.79L173.08 54.52ZM38.39 56.14L47.91 63.44L47.34 64.18L37.82 56.88L38.39 56.14ZM173.35 61.43L173.58 61.3C174.11 60.99 174.64 60.78 175.18 60.67Q175.99 60.5 176.73 60.64C177.23 60.74 177.68 60.93 178.1 61.23C178.51 61.52 178.87 61.91 179.15 62.4C179.44 62.89 179.61 63.39 179.66 63.9C179.68 64.03 179.68 64.16 179.68 64.29C179.68 64.66 179.62 65.02 179.51 65.38C179.35 65.86 179.09 66.31 178.73 66.72C178.36 67.14 177.92 67.5 177.39 67.81L177.17 67.95C176.64 68.26 176.1 68.47 175.56 68.58C175.03 68.69 174.52 68.69 174.02 68.6C173.52 68.5 173.07 68.31 172.65 68.02C172.24 67.73 171.88 67.33 171.6 66.84C171.31 66.35 171.14 65.85 171.08 65.35C171.07 65.22 171.06 65.1 171.06 64.98C171.06 64.6 171.12 64.23 171.25 63.86Q171.25 63.85 171.25 63.84Q171.49 63.13 172.02 62.52C172.38 62.11 172.82 61.74 173.35 61.43ZM174.05 62.1L173.82 62.24Q173.22 62.59 172.78 63.06C172.49 63.38 172.26 63.72 172.1 64.09C171.97 64.42 171.9 64.75 171.9 65.09C171.9 65.14 171.91 65.19 171.91 65.24C171.93 65.64 172.06 66.04 172.29 66.44C172.52 66.83 172.81 67.14 173.14 67.34Q173.39 67.51 173.67 67.6L173.67 67.6L173.67 67.6Q173.94 67.7 174.24 67.73C174.64 67.78 175.04 67.75 175.46 67.64C175.88 67.54 176.29 67.37 176.69 67.14L176.92 67.01C177.31 66.77 177.66 66.5 177.95 66.18C178.24 65.87 178.47 65.53 178.62 65.16C178.76 64.82 178.83 64.48 178.83 64.12C178.83 64.08 178.83 64.04 178.83 64C178.81 63.6 178.69 63.2 178.46 62.81C178.23 62.41 177.94 62.11 177.6 61.9C177.26 61.69 176.89 61.56 176.49 61.52C176.09 61.47 175.68 61.5 175.26 61.6C174.85 61.7 174.44 61.87 174.05 62.1ZM37.52 70.8L36.68 70.34C36.33 70.14 35.99 70.05 35.65 70.05C35.32 70.05 35 70.16 34.71 70.37C34.42 70.57 34.15 70.88 33.92 71.3C33.71 71.68 33.59 72.06 33.56 72.43C33.55 72.51 33.55 72.58 33.55 72.65C33.55 72.93 33.6 73.2 33.71 73.44C33.84 73.73 34.04 73.95 34.31 74.1L33.85 74.92C33.57 74.77 33.34 74.55 33.16 74.27C32.97 73.99 32.85 73.66 32.78 73.3Q32.74 73.04 32.74 72.77C32.74 72.56 32.76 72.35 32.8 72.13C32.87 71.72 33.02 71.3 33.25 70.88C33.55 70.35 33.89 69.94 34.29 69.63C34.7 69.33 35.14 69.16 35.62 69.13C36.1 69.1 36.61 69.23 37.15 69.53L40.72 71.52C40.97 71.66 41.25 71.79 41.54 71.91C41.84 72.02 42.09 72.09 42.31 72.11L42.39 72.16L41.91 73.02C41.72 72.99 41.49 72.92 41.23 72.81C41.07 72.75 40.93 72.68 40.79 72.61C40.88 72.83 40.95 73.08 41 73.34C41.04 73.53 41.05 73.73 41.05 73.94C41.05 74.13 41.04 74.31 41.01 74.51C40.95 74.92 40.8 75.33 40.57 75.76C40.3 76.25 39.97 76.62 39.59 76.87C39.21 77.13 38.81 77.27 38.38 77.29C37.96 77.31 37.54 77.21 37.14 76.99C36.78 76.78 36.5 76.52 36.29 76.21C36.09 75.89 35.97 75.53 35.93 75.13C35.92 75.03 35.91 74.93 35.91 74.83C35.91 74.51 35.96 74.17 36.06 73.81C36.18 73.33 36.39 72.83 36.68 72.31L37.52 70.8ZM39.78 72.06L38.14 71.15L37.37 72.55C37.13 72.97 36.96 73.37 36.85 73.74Q36.71 74.21 36.71 74.62Q36.71 74.69 36.72 74.76C36.73 75.06 36.81 75.33 36.94 75.57C37.07 75.8 37.27 75.98 37.52 76.12C37.79 76.27 38.06 76.34 38.36 76.33C38.65 76.31 38.93 76.22 39.2 76.05Q39.6 75.78 39.89 75.27C40.14 74.81 40.28 74.36 40.3 73.93C40.31 73.86 40.31 73.79 40.31 73.72C40.31 73.36 40.25 73.01 40.12 72.69Q39.99 72.34 39.78 72.06ZM183.38 75.96L177.9 77.84L177.6 76.96L185.6 74.23L185.88 75.07L184.54 75.56C184.76 75.61 184.96 75.67 185.16 75.75C185.57 75.93 185.93 76.17 186.24 76.48C186.54 76.8 186.77 77.19 186.93 77.65Q187.13 78.25 187.13 78.77L187.13 78.78C187.13 79.13 187.05 79.46 186.89 79.76C186.73 80.06 186.48 80.33 186.15 80.57C185.82 80.82 185.39 81.03 184.86 81.21L179.66 82.99L179.35 82.1L184.57 80.32C185.12 80.14 185.52 79.91 185.78 79.65C186.04 79.39 186.19 79.1 186.23 78.77C186.24 78.7 186.24 78.63 186.24 78.55C186.24 78.29 186.19 78.01 186.09 77.71C185.95 77.28 185.73 76.94 185.43 76.69C185.14 76.43 184.81 76.25 184.44 76.13C184.09 76.02 183.74 75.97 183.38 75.96ZM28.29 88.97C28.15 88.81 28.02 88.64 27.91 88.45Q27.69 88.09 27.58 87.71Q27.51 87.47 27.47 87.22C27.46 87.1 27.45 86.97 27.45 86.85C27.45 86.53 27.5 86.2 27.61 85.87C27.73 85.47 27.9 85.13 28.11 84.85C28.32 84.56 28.58 84.35 28.89 84.2C29.2 84.05 29.56 83.98 29.97 83.98C30.38 83.98 30.85 84.06 31.39 84.23L36.63 85.89L36.35 86.79L31.09 85.13C30.54 84.95 30.08 84.89 29.72 84.94Q29.3 85.01 29 85.23Q28.91 85.3 28.83 85.38C28.61 85.63 28.44 85.94 28.32 86.33C28.23 86.59 28.19 86.84 28.19 87.08C28.19 87.24 28.21 87.39 28.24 87.54C28.33 87.92 28.48 88.26 28.71 88.57Q28.94 88.89 29.23 89.14Q29.34 89.24 29.46 89.34L34.99 91.08L34.71 91.97L26.65 89.42L26.92 88.57L28.29 88.97ZM187.98 96.17L188.93 96.05C189.32 96 189.66 95.87 189.93 95.67C190.19 95.47 190.39 95.2 190.5 94.86C190.58 94.64 190.62 94.38 190.62 94.1Q190.62 93.88 190.59 93.65C190.53 93.21 190.41 92.83 190.21 92.51C190.02 92.2 189.78 91.95 189.5 91.79C189.22 91.63 188.93 91.57 188.62 91.61L188.51 90.68C188.83 90.64 189.14 90.68 189.46 90.8C189.77 90.91 190.06 91.1 190.33 91.36C190.6 91.61 190.82 91.93 191.01 92.3C191.19 92.68 191.32 93.11 191.38 93.59C191.4 93.79 191.41 93.99 191.41 94.18C191.41 94.55 191.37 94.89 191.27 95.21C191.12 95.69 190.87 96.09 190.5 96.4C190.12 96.71 189.63 96.9 189.02 96.97L184.97 97.48Q184.54 97.53 184.08 97.65C183.77 97.73 183.53 97.83 183.34 97.94L183.24 97.95L183.12 96.97C183.3 96.88 183.52 96.8 183.8 96.73C183.96 96.69 184.12 96.66 184.27 96.64C184.06 96.51 183.86 96.36 183.67 96.17C183.4 95.92 183.17 95.61 182.97 95.24C182.78 94.87 182.65 94.45 182.59 93.96C182.57 93.8 182.56 93.63 182.56 93.48C182.56 93.12 182.61 92.79 182.72 92.49C182.88 92.06 183.12 91.71 183.45 91.44C183.78 91.17 184.18 91.01 184.63 90.95C185.05 90.9 185.43 90.94 185.77 91.08C186.13 91.21 186.44 91.43 186.71 91.73C186.98 92.04 187.21 92.42 187.38 92.88C187.57 93.34 187.69 93.86 187.77 94.45L187.98 96.17ZM185.41 96.48L187.27 96.25L187.07 94.67C187.01 94.19 186.91 93.77 186.78 93.4C186.65 93.04 186.49 92.74 186.29 92.5C186.1 92.26 185.88 92.09 185.63 91.98C185.39 91.87 185.12 91.84 184.83 91.87C184.53 91.91 184.27 92.02 184.04 92.2C183.81 92.38 183.64 92.63 183.52 92.92C183.45 93.13 183.41 93.37 183.41 93.62Q183.41 93.78 183.43 93.96C183.5 94.48 183.65 94.92 183.89 95.29C184.13 95.66 184.42 95.96 184.76 96.18C184.97 96.31 185.19 96.42 185.41 96.48ZM28.89 107.46L28.64 107.44C28.02 107.38 27.47 107.23 26.97 107Q26.22 106.66 25.7 106.12C25.35 105.75 25.1 105.32 24.94 104.84C24.82 104.48 24.75 104.1 24.75 103.69C24.75 103.55 24.76 103.41 24.78 103.27C24.83 102.7 24.99 102.19 25.25 101.75C25.5 101.31 25.84 100.94 26.25 100.65Q26.87 100.21 27.67 100.02C28.21 99.9 28.78 99.87 29.39 99.93L29.65 99.96C30.26 100.02 30.82 100.16 31.32 100.39C31.81 100.62 32.23 100.92 32.58 101.29C32.92 101.65 33.18 102.07 33.34 102.56Q33.52 103.09 33.52 103.69C33.52 103.84 33.51 103.98 33.5 104.13C33.44 104.7 33.29 105.2 33.03 105.64C32.77 106.08 32.44 106.45 32.03 106.74C31.62 107.04 31.14 107.25 30.61 107.37C30.08 107.5 29.5 107.53 28.89 107.46ZM28.73 106.51L28.99 106.54Q29.68 106.61 30.32 106.49C30.74 106.4 31.12 106.26 31.47 106.05C31.81 105.84 32.09 105.57 32.3 105.24C32.52 104.91 32.65 104.51 32.7 104.05Q32.72 103.88 32.72 103.73C32.72 103.4 32.66 103.09 32.55 102.82C32.4 102.44 32.18 102.12 31.89 101.85C31.59 101.58 31.25 101.37 30.85 101.21C30.45 101.04 30.01 100.94 29.55 100.89L29.3 100.86C28.84 100.82 28.4 100.84 27.98 100.92Q27.4 101.03 26.92 101.3Q26.87 101.33 26.83 101.35C26.49 101.56 26.2 101.83 25.98 102.16C25.76 102.5 25.62 102.89 25.58 103.35C25.57 103.45 25.56 103.56 25.56 103.66C25.56 103.99 25.62 104.3 25.74 104.59C25.89 104.95 26.11 105.27 26.41 105.55C26.7 105.82 27.05 106.04 27.45 106.2C27.85 106.37 28.27 106.47 28.73 106.51ZM25.05 113.34L33.49 112.94L33.54 113.87L25.09 114.26L25.05 113.34ZM22.66 114.54C22.48 114.55 22.33 114.5 22.21 114.4C22.08 114.29 22 114.14 22 113.94Q22 113.92 22 113.9C22 113.72 22.05 113.57 22.16 113.46C22.28 113.34 22.42 113.27 22.6 113.26C22.77 113.25 22.92 113.31 23.05 113.42C23.18 113.53 23.24 113.68 23.25 113.88C23.25 113.9 23.25 113.91 23.25 113.92C23.25 114.1 23.2 114.25 23.09 114.36C22.98 114.47 22.83 114.53 22.66 114.54ZM189.16 119.2L183.49 117.98L183.69 117.07L191.95 118.85L191.77 119.72L190.36 119.45C190.52 119.6 190.66 119.76 190.79 119.93C191.05 120.29 191.24 120.69 191.34 121.11C191.39 121.33 191.41 121.54 191.41 121.77C191.41 122 191.38 122.23 191.33 122.47C191.25 122.88 191.11 123.24 190.93 123.54C190.75 123.84 190.51 124.08 190.21 124.26C189.92 124.44 189.57 124.54 189.16 124.58C188.76 124.62 188.28 124.58 187.73 124.46L182.35 123.31L182.55 122.39L187.93 123.55C188.5 123.67 188.96 123.68 189.32 123.6C189.68 123.51 189.96 123.33 190.16 123.07C190.36 122.81 190.5 122.48 190.59 122.09C190.63 121.9 190.65 121.71 190.65 121.53C190.65 121.3 190.61 121.08 190.54 120.87C190.42 120.5 190.24 120.18 189.98 119.89C189.74 119.61 189.46 119.39 189.16 119.2ZM24.44 125.59L24.29 124.67L26.43 124.32L26.15 122.59L26.91 122.47L27.19 124.2L32.75 123.29C33.13 123.23 33.42 123.13 33.59 122.99C33.77 122.86 33.88 122.7 33.92 122.53C33.94 122.43 33.96 122.33 33.96 122.23C33.96 122.15 33.95 122.06 33.94 121.98C33.91 121.84 33.88 121.71 33.85 121.58C33.81 121.46 33.77 121.35 33.73 121.25L34.5 121.08C34.56 121.19 34.61 121.33 34.66 121.51C34.71 121.68 34.75 121.86 34.78 122.04C34.81 122.18 34.82 122.32 34.82 122.46C34.82 122.65 34.8 122.84 34.75 123.01C34.66 123.31 34.47 123.56 34.17 123.76Q33.72 124.07 32.89 124.21L27.34 125.12L27.59 126.65L26.83 126.77L26.58 125.24L24.44 125.59ZM179.34 137.21C179.22 137 179.13 136.76 179.06 136.5C178.97 136.21 178.93 135.89 178.93 135.54Q178.93 135.44 178.93 135.34C178.96 134.93 179.07 134.5 179.27 134.05C179.49 133.55 179.78 133.15 180.13 132.86C180.49 132.57 180.88 132.39 181.3 132.33C181.72 132.27 182.14 132.33 182.56 132.52C182.94 132.69 183.25 132.92 183.48 133.21C183.71 133.51 183.86 133.85 183.94 134.25C183.98 134.45 184 134.66 184 134.87C184 135.1 183.98 135.34 183.93 135.58C183.86 136.07 183.7 136.59 183.46 137.13L182.76 138.71L183.63 139.1C184 139.26 184.35 139.32 184.68 139.28C185.02 139.25 185.32 139.12 185.6 138.88C185.87 138.65 186.1 138.32 186.29 137.89C186.46 137.49 186.55 137.11 186.55 136.75C186.55 136.74 186.55 136.73 186.55 136.72C186.55 136.35 186.47 136.02 186.31 135.73C186.15 135.45 185.93 135.25 185.65 135.12L186.03 134.27C186.32 134.4 186.57 134.59 186.78 134.86C186.99 135.12 187.14 135.43 187.24 135.78C187.32 136.05 187.35 136.33 187.35 136.62C187.35 136.73 187.35 136.84 187.34 136.95C187.31 137.37 187.19 137.8 187 138.24C186.76 138.79 186.45 139.24 186.08 139.57C185.7 139.92 185.28 140.13 184.8 140.2C184.33 140.27 183.81 140.19 183.25 139.94L179.51 138.29C179.24 138.17 178.95 138.07 178.65 137.98C178.35 137.9 178.09 137.86 177.86 137.85L177.78 137.81L178.18 136.9C178.38 136.92 178.61 136.97 178.88 137.05C179.04 137.1 179.19 137.15 179.34 137.21ZM33.29 135.68L32.39 135.99C32 136.12 31.7 136.31 31.48 136.56C31.26 136.82 31.13 137.12 31.08 137.48C31.07 137.56 31.07 137.64 31.07 137.72C31.07 138.01 31.13 138.33 31.25 138.68C31.39 139.1 31.59 139.44 31.85 139.72C32.1 139.99 32.38 140.17 32.69 140.28C33 140.38 33.3 140.38 33.59 140.28L33.89 141.17C33.59 141.27 33.27 141.29 32.94 141.24C32.61 141.19 32.28 141.07 31.97 140.87C31.66 140.68 31.37 140.41 31.11 140.08C30.85 139.75 30.64 139.35 30.49 138.9C30.33 138.43 30.25 137.99 30.25 137.57C30.25 137.48 30.25 137.39 30.26 137.29C30.31 136.79 30.48 136.35 30.78 135.97C31.08 135.59 31.52 135.31 32.1 135.11L35.97 133.79C36.24 133.69 36.52 133.57 36.8 133.43C37.08 133.29 37.31 133.14 37.47 133L37.56 132.97L37.88 133.91C37.73 134.03 37.52 134.15 37.26 134.28C37.11 134.35 36.97 134.41 36.83 134.47C37.05 134.55 37.28 134.66 37.51 134.8C37.82 134.99 38.11 135.25 38.38 135.57C38.65 135.89 38.86 136.28 39.01 136.74C39.15 137.13 39.21 137.49 39.21 137.84C39.21 137.97 39.2 138.09 39.18 138.21C39.12 138.66 38.95 139.05 38.69 139.39C38.41 139.72 38.06 139.96 37.63 140.1C37.23 140.24 36.85 140.28 36.48 140.21C36.11 140.15 35.76 140 35.44 139.76C35.11 139.52 34.81 139.19 34.54 138.78C34.27 138.37 34.04 137.88 33.84 137.32L33.29 135.68ZM182.1 138.42L182.75 136.96C182.94 136.52 183.08 136.11 183.15 135.72C183.19 135.49 183.22 135.27 183.22 135.07C183.22 134.94 183.21 134.82 183.19 134.7C183.15 134.39 183.05 134.13 182.9 133.91C182.74 133.7 182.53 133.53 182.26 133.41C181.99 133.29 181.7 133.25 181.41 133.28Q181.32 133.3 181.24 133.32Q180.9 133.41 180.6 133.64C180.35 133.84 180.15 134.13 179.99 134.48C179.79 134.92 179.7 135.35 179.7 135.76C179.7 135.79 179.7 135.83 179.7 135.86C179.71 136.3 179.81 136.71 179.99 137.07C180.1 137.3 180.24 137.49 180.4 137.67L182.1 138.42ZM35.74 134.85L33.97 135.45L34.49 136.97C34.64 137.42 34.82 137.81 35.03 138.14C35.23 138.47 35.45 138.73 35.69 138.92C35.93 139.12 36.17 139.25 36.44 139.31C36.7 139.36 36.97 139.34 37.24 139.25C37.53 139.15 37.76 138.99 37.95 138.76C38.14 138.53 38.26 138.26 38.31 137.95Q38.33 137.82 38.33 137.69C38.33 137.45 38.28 137.19 38.19 136.92C38.02 136.42 37.78 136.02 37.47 135.71Q37.02 135.24 36.46 135.02Q36.45 135.02 36.43 135.01Q36.08 134.88 35.74 134.85ZM40.79 155.02C40.57 155.02 40.35 155 40.14 154.96C39.7 154.87 39.3 154.7 38.94 154.46C38.57 154.21 38.27 153.88 38.02 153.46Q37.7 152.91 37.59 152.39C37.56 152.25 37.55 152.1 37.55 151.96C37.55 151.77 37.58 151.57 37.63 151.38C37.73 151.06 37.91 150.74 38.19 150.44C38.46 150.13 38.84 149.84 39.32 149.55L44.06 146.75L44.54 147.56L39.79 150.36C39.29 150.66 38.94 150.96 38.74 151.26C38.56 151.53 38.47 151.81 38.47 152.09C38.47 152.13 38.47 152.18 38.48 152.22C38.51 152.55 38.63 152.88 38.83 153.23C39.06 153.62 39.34 153.91 39.69 154.1C40.02 154.29 40.38 154.4 40.77 154.44C41.13 154.47 41.49 154.46 41.84 154.39L46.83 151.44L47.3 152.24L40.02 156.54L39.57 155.77L40.79 155.02ZM182.29 152.38L181.77 153.15L179.96 151.95L179 153.41L178.36 152.99L179.33 151.53L174.63 148.42Q174.14 148.1 173.81 148.06C173.59 148.04 173.4 148.08 173.25 148.18C173.1 148.28 172.98 148.41 172.87 148.57C172.79 148.69 172.72 148.81 172.67 148.92C172.61 149.05 172.56 149.15 172.52 149.25L171.84 148.85C171.88 148.73 171.93 148.59 172.02 148.43C172.1 148.26 172.19 148.11 172.29 147.95C172.49 147.65 172.72 147.42 172.98 147.27C173.24 147.11 173.55 147.06 173.91 147.11C174.27 147.16 174.68 147.34 175.15 147.65L179.84 150.75L180.7 149.46L181.34 149.88L180.48 151.18L182.29 152.38ZM173.63 160.83L167.16 155.39L167.76 154.68L174.23 160.12L173.63 160.83ZM166.89 162.44L167.06 162.63C167.47 163.09 167.78 163.57 168 164.08C168.21 164.58 168.32 165.09 168.33 165.59C168.33 165.6 168.33 165.61 168.33 165.62C168.33 166.11 168.23 166.59 168.02 167.05C167.82 167.51 167.5 167.94 167.08 168.31C166.65 168.69 166.19 168.96 165.71 169.11C165.22 169.26 164.73 169.31 164.23 169.24C163.72 169.18 163.23 169.01 162.75 168.74C162.28 168.47 161.83 168.11 161.42 167.65L161.25 167.45C160.85 167 160.53 166.51 160.32 166.01C160.11 165.5 160 165 160 164.49Q160 164.47 160 164.44Q160 164.16 160.04 163.88L160.04 163.88L160.04 163.88Q160.11 163.45 160.29 163.04C160.5 162.57 160.82 162.15 161.24 161.78C161.67 161.39 162.13 161.13 162.61 160.98C163.1 160.83 163.59 160.78 164.1 160.85C164.6 160.91 165.09 161.07 165.56 161.34C166.04 161.61 166.48 161.98 166.89 162.44ZM176.21 161.56C176.35 161.68 176.42 161.81 176.44 161.97C176.45 162 176.45 162.02 176.45 162.05C176.45 162.19 176.4 162.33 176.29 162.45C176.16 162.61 176.01 162.69 175.84 162.69C175.67 162.71 175.52 162.66 175.39 162.54C175.25 162.43 175.18 162.29 175.16 162.12C175.16 162.1 175.16 162.08 175.16 162.06C175.16 161.92 175.21 161.78 175.32 161.64C175.45 161.49 175.6 161.41 175.76 161.4C175.93 161.4 176.08 161.45 176.21 161.56ZM166.37 163.25L166.2 163.05C165.89 162.71 165.55 162.42 165.18 162.19C164.81 161.97 164.43 161.82 164.04 161.73C163.65 161.66 163.26 161.67 162.87 161.77C162.49 161.86 162.12 162.07 161.78 162.38Q161.26 162.83 161.05 163.39C160.94 163.69 160.88 164 160.88 164.32Q160.88 164.43 160.89 164.54C160.92 164.94 161.03 165.33 161.22 165.72C161.4 166.11 161.64 166.49 161.95 166.83L162.13 167.02C162.43 167.37 162.77 167.65 163.13 167.87C163.5 168.1 163.88 168.25 164.27 168.33C164.67 168.42 165.06 168.41 165.45 168.31C165.84 168.22 166.2 168.02 166.54 167.71Q167.06 167.26 167.27 166.69C167.38 166.39 167.43 166.08 167.43 165.76C167.43 165.68 167.43 165.6 167.43 165.53C167.39 165.13 167.28 164.73 167.1 164.34C166.92 163.95 166.67 163.59 166.37 163.25ZM65.32 169.62L65.62 175.08L67.09 174.86L68.97 172.24L69.72 172.78L62.74 182.54L61.98 182L66.45 175.76L65.17 176.02L60.69 176.71L59.73 176.02L64.72 175.22L64.4 168.97L65.32 169.62ZM154.29 175.32L151.39 170.29L152.2 169.83L156.42 177.15L155.64 177.6L154.91 176.38C154.9 176.59 154.88 176.81 154.84 177.02C154.75 177.46 154.57 177.86 154.33 178.22C154.07 178.58 153.73 178.88 153.31 179.12C152.95 179.33 152.59 179.47 152.25 179.54C151.9 179.61 151.56 179.59 151.24 179.49C150.91 179.39 150.6 179.2 150.3 178.92C149.99 178.65 149.7 178.27 149.42 177.78L146.68 173.01L147.49 172.54L150.24 177.32C150.53 177.82 150.83 178.18 151.13 178.38C151.43 178.59 151.75 178.68 152.08 178.65C152.41 178.63 152.75 178.51 153.1 178.31C153.49 178.09 153.78 177.8 153.97 177.46C154.17 177.13 154.28 176.77 154.33 176.39C154.34 176.25 154.35 176.12 154.35 175.98Q154.35 175.8 154.33 175.62Q154.31 175.47 154.29 175.32ZM75.3 182.1L77.91 176.87L78.74 177.29L74.96 184.85L74.15 184.44L74.72 183.25C74.61 183.33 74.5 183.4 74.39 183.47C74.02 183.68 73.63 183.8 73.22 183.81Q72.59 183.84 71.93 183.51C71.83 183.46 71.73 183.4 71.63 183.33C71.53 183.26 71.46 183.2 71.42 183.15L71.83 182.39C71.91 182.45 72 182.51 72.08 182.56Q72.21 182.64 72.36 182.72C72.73 182.9 73.08 183 73.42 183C73.76 183 74.08 182.93 74.38 182.79C74.69 182.65 74.97 182.44 75.22 182.18C75.25 182.15 75.27 182.12 75.3 182.1ZM134.33 180.09C134.41 179.87 134.52 179.64 134.66 179.41C134.86 179.1 135.12 178.81 135.44 178.54C135.76 178.28 136.15 178.08 136.62 177.92C137.14 177.75 137.63 177.69 138.09 177.76C138.54 177.83 138.93 178 139.26 178.27C139.59 178.54 139.83 178.9 139.97 179.33Q140.1 179.73 140.1 180.11C140.1 180.23 140.09 180.36 140.07 180.48C140.01 180.85 139.85 181.2 139.61 181.52C139.36 181.85 139.03 182.15 138.62 182.41C138.21 182.68 137.72 182.91 137.15 183.1L135.52 183.64L135.82 184.55C135.94 184.93 136.13 185.23 136.38 185.45C136.63 185.68 136.93 185.81 137.29 185.86C137.65 185.9 138.05 185.85 138.5 185.7C138.92 185.56 139.26 185.37 139.54 185.11C139.81 184.86 140 184.58 140.1 184.27C140.16 184.12 140.18 183.96 140.18 183.81C140.18 183.66 140.16 183.52 140.11 183.37L141 183.08C141.07 183.28 141.1 183.48 141.1 183.69Q141.1 183.86 141.07 184.03C141.02 184.36 140.89 184.68 140.69 185C140.5 185.31 140.23 185.59 139.9 185.85C139.56 186.11 139.17 186.31 138.71 186.46C138.14 186.65 137.6 186.73 137.1 186.68C136.6 186.63 136.16 186.46 135.78 186.15C135.41 185.85 135.12 185.41 134.93 184.82L133.64 180.95C133.55 180.67 133.43 180.39 133.29 180.11C133.15 179.83 133.01 179.6 132.86 179.43L132.84 179.35L133.78 179.03C133.89 179.19 134.02 179.4 134.14 179.65C134.21 179.8 134.27 179.95 134.33 180.09ZM135.29 182.96L136.81 182.45C137.26 182.3 137.66 182.12 137.99 181.92C138.32 181.72 138.58 181.5 138.77 181.26C138.97 181.03 139.1 180.78 139.16 180.52C139.18 180.42 139.19 180.32 139.19 180.22C139.19 180.05 139.17 179.88 139.11 179.71C139.01 179.42 138.85 179.19 138.63 179C138.4 178.81 138.13 178.69 137.82 178.63C137.5 178.59 137.16 178.62 136.79 178.75C136.29 178.91 135.89 179.15 135.57 179.46C135.25 179.77 135.02 180.11 134.87 180.49C134.78 180.72 134.72 180.95 134.7 181.19L135.29 182.96ZM87.1 185.34L86.83 186.26C86.76 186.49 86.72 186.71 86.72 186.92C86.72 187.06 86.74 187.2 86.77 187.33C86.84 187.65 87.02 187.94 87.28 188.18C87.54 188.42 87.9 188.61 88.36 188.75C88.78 188.87 89.17 188.91 89.55 188.86C89.91 188.81 90.23 188.69 90.5 188.5Q90.71 188.34 90.85 188.13Q90.96 187.97 91.02 187.77L91.91 188.04C91.82 188.35 91.66 188.62 91.42 188.86C91.19 189.1 90.9 189.29 90.56 189.43C90.22 189.57 89.84 189.65 89.42 189.67C89 189.69 88.55 189.63 88.09 189.49C87.51 189.32 87.04 189.07 86.66 188.74C86.27 188.41 86.01 188.02 85.88 187.56C85.82 187.36 85.79 187.14 85.79 186.92C85.79 186.63 85.84 186.31 85.94 185.98L87.11 182.06C87.2 181.78 87.26 181.49 87.32 181.18C87.34 180.96 87.36 180.78 87.36 180.61C87.36 180.53 87.36 180.45 87.35 180.38L87.38 180.29L88.33 180.57C88.33 180.6 88.33 180.62 88.33 180.65C88.33 180.83 88.31 181.04 88.27 181.29Q88.22 181.53 88.17 181.76C88.36 181.62 88.58 181.5 88.83 181.39C89.17 181.25 89.55 181.16 89.97 181.13C90.38 181.1 90.82 181.16 91.29 181.3C91.82 181.46 92.25 181.7 92.58 182.01C92.91 182.33 93.14 182.69 93.25 183.1C93.3 183.29 93.33 183.48 93.33 183.68C93.33 183.91 93.29 184.14 93.22 184.38C93.1 184.78 92.91 185.11 92.65 185.38C92.38 185.64 92.06 185.84 91.67 185.96Q91.08 186.16 90.35 186.12C89.86 186.11 89.33 186.01 88.75 185.84L87.1 185.34ZM107.67 184.61L108.05 180.31L108.99 180.4L107.95 192.06L107.08 191.98L107.14 190.79C107.03 190.92 106.91 191.05 106.78 191.17C106.47 191.44 106.12 191.64 105.72 191.77C105.33 191.9 104.88 191.94 104.39 191.9C103.87 191.85 103.43 191.71 103.04 191.47C102.66 191.24 102.34 190.92 102.1 190.52C101.85 190.12 101.68 189.65 101.59 189.11Q101.5 188.6 101.5 188.02C101.5 187.8 101.51 187.56 101.53 187.32L101.54 187.16C101.6 186.53 101.72 185.96 101.92 185.45C102.11 184.94 102.36 184.5 102.67 184.14C102.97 183.79 103.33 183.52 103.75 183.35C104.17 183.18 104.63 183.12 105.14 183.16C105.64 183.21 106.09 183.32 106.46 183.52Q106.92 183.74 107.26 184.08L107.26 184.08Q107.35 184.17 107.43 184.27Q107.49 184.35 107.55 184.43Q107.61 184.52 107.67 184.61ZM124.93 193.81L122.86 181.99L123.78 181.83L125.84 193.65L124.93 193.81ZM87.84 182.87L87.31 184.66L88.84 185.12C89.3 185.25 89.73 185.33 90.11 185.36C90.5 185.39 90.84 185.36 91.14 185.27C91.43 185.19 91.68 185.06 91.88 184.89C92.08 184.7 92.22 184.47 92.3 184.2Q92.37 183.96 92.37 183.73Q92.37 183.7 92.37 183.67L92.37 183.66Q92.36 183.5 92.32 183.34C92.24 183.05 92.09 182.8 91.86 182.57C91.63 182.35 91.33 182.18 90.95 182.07C90.45 181.92 89.99 181.88 89.55 181.95C89.11 182.02 88.72 182.17 88.39 182.39C88.18 182.53 88 182.69 87.84 182.87ZM107.22 189.72L107.58 185.67Q107.5 185.47 107.4 185.28C107.21 184.93 106.94 184.63 106.6 184.4C106.25 184.17 105.81 184.03 105.28 183.98C104.85 183.94 104.48 184 104.15 184.15C103.82 184.3 103.54 184.52 103.31 184.82C103.08 185.12 102.89 185.47 102.76 185.88C102.61 186.29 102.52 186.75 102.48 187.24L102.46 187.4C102.45 187.6 102.44 187.79 102.44 187.98C102.44 188.26 102.46 188.53 102.5 188.79C102.56 189.21 102.68 189.59 102.86 189.92C103.03 190.26 103.27 190.53 103.57 190.73C103.87 190.94 104.23 191.06 104.66 191.1C105.11 191.14 105.5 191.09 105.83 190.97C106.15 190.85 106.43 190.68 106.66 190.46C106.88 190.24 107.07 189.99 107.22 189.72Z" fill="#070707" fill-opacity="1.000000" fill-rule="evenodd"/>
</svg>
