<svg width="100" height="20" viewBox="0 0 100 20" fill="none" xmlns="http://www.w3.org/2000/svg">
<path d="M90 1.62899L91.7577 7.0792L91.8697 7.42653L92.2347 7.42573L97.9613 7.41322L93.321 10.7691L93.0253 10.983L93.1388 11.3298L94.9204 16.7723L90.2948 13.3961L90 13.181L89.7052 13.3961L85.0796 16.7723L86.8612 11.3298L86.9747 10.983L86.679 10.7691L82.0387 7.41322L87.7653 7.42573L88.1303 7.42653L88.2423 7.0792L90 1.62899Z" stroke="#5AAA45"/>
<path d="M10 0L12.2336 6.92574L19.5106 6.90983L13.614 11.1743L15.8779 18.0902L10 13.8L4.12215 18.0902L6.38599 11.1743L0.489435 6.90983L7.76642 6.92574L10 0Z" fill="#5AAA45"/>
<path d="M30 0L32.2336 6.92574L39.5106 6.90983L33.614 11.1743L35.8779 18.0902L30 13.8L24.1221 18.0902L26.386 11.1743L20.4894 6.90983L27.7664 6.92574L30 0Z" fill="#5AAA45"/>
<path d="M70 0L72.2336 6.92574L79.5106 6.90983L73.614 11.1743L75.8779 18.0902L70 13.8L64.1221 18.0902L66.386 11.1743L60.4894 6.90983L67.7664 6.92574L70 0Z" fill="#5AAA45"/>
<path d="M50 0L52.2336 6.92574L59.5106 6.90983L53.614 11.1743L55.8779 18.0902L50 13.8L44.1221 18.0902L46.386 11.1743L40.4894 6.90983L47.7664 6.92574L50 0Z" fill="#5AAA45"/>
<path d="M89.9988 0L90 3.5L89.9988 6.90983L90 8V10.5V13L89.9988 13.8197L84.121 18.0902L86.3661 11.1803L80.4883 6.90983H87.7537L89.9988 0Z" fill="#5AAA45"/>
</svg>
