<svg width="27" height="26" viewBox="0 0 27 26" fill="none" xmlns="http://www.w3.org/2000/svg">
<path d="M26.5 13C26.5 20.1797 20.6797 26 13.5 26C6.3203 26 0.5 20.1797 0.5 13C0.5 5.8203 6.3203 0 13.5 0C20.6797 0 26.5 5.8203 26.5 13ZM13.9659 9.59723C12.7015 10.1232 10.1744 11.2117 6.38462 12.8628C5.76922 13.1075 5.44685 13.3469 5.4175 13.581C5.3679 13.9767 5.86334 14.1325 6.538 14.3446C6.62977 14.3735 6.72485 14.4034 6.82233 14.435C7.48609 14.6508 8.37896 14.9032 8.84313 14.9132C9.26417 14.9223 9.7341 14.7488 10.2529 14.3925C13.7938 12.0023 15.6216 10.7942 15.7364 10.7681C15.8174 10.7498 15.9295 10.7267 16.0056 10.7942C16.0816 10.8618 16.0741 10.9897 16.066 11.0241C16.017 11.2333 14.0722 13.0413 13.0658 13.977C12.752 14.2687 12.5295 14.4756 12.484 14.5228C12.3821 14.6287 12.2782 14.7288 12.1784 14.825C11.5617 15.4195 11.0993 15.8653 12.204 16.5932C12.7348 16.9431 13.1596 17.2323 13.5834 17.5209C14.0463 17.8361 14.5079 18.1505 15.1051 18.542C15.2573 18.6418 15.4026 18.7454 15.5442 18.8463C16.0828 19.2303 16.5667 19.5752 17.1645 19.5202C17.5119 19.4883 17.8707 19.1616 18.053 18.1874C18.4836 15.8851 19.3302 10.8967 19.5258 8.84112C19.5429 8.66102 19.5214 8.43053 19.5041 8.32935C19.4867 8.22817 19.4506 8.08401 19.319 7.9773C19.1633 7.85091 18.9228 7.82426 18.8153 7.82616C18.3263 7.83477 17.5762 8.09562 13.9659 9.59723Z" fill="#F6F6F6"/>
</svg>
